<svg id="Layer_1" data-name="Layer 1" xmlns="http://www.w3.org/2000/svg" viewBox="0 0 341.046 161.135"><defs><style>.cls-1{fill:#ccc;}.cls-2{fill:#cacaca;}.cls-3{fill:#adadad;}.cls-4{fill:#efd693;}.cls-5{fill:#689480;}.cls-6{fill:#8b4646;}.cls-7{fill:#da6b5c;}.cls-8{fill:#2080a4;}.cls-9{fill:#f3bd81;}.cls-10{fill:#bf5e50;}.cls-11{fill:#d8c285;}.cls-12{fill:#577d6c;}.cls-13{fill:#1b6e8c;}.cls-14{fill:#c8b37b;}.cls-15{fill:#1d6e8c;}.cls-16{fill:#134c62;}.cls-17{fill:#222b2f;}.cls-18{fill:#5a2c26;}.cls-19{fill:#1c6986;}.cls-20{fill:#3d584c;}</style></defs><title>cbusparksLogo</title><path d="M387.441,397.838c-1.872.577-3.366,1.834-4.991,2.836a213.213,213.213,0,0,1-25.511,13.378,185.578,185.578,0,0,1-42.394,12.874c-4.857.879-9.694,1.872-14.537,2.827-2.365.467-4.759.149-7.132.211-10.6.278-21.208.735-31.774-.884a233.3,233.3,0,0,1-26.355-5.523,137.345,137.345,0,0,1-23.208-8.7c-4.731-2.269-9.217-4.97-13.857-7.4a144.489,144.489,0,0,1-17.231-10.612c-5.15-3.69-10.506-7.038-15.171-11.413-2.2-2.065-4.322-4.2-6.488-6.3-3.377-3.267-5.849-7.21-8.7-10.872-2.319-2.975-4.576-6-6.885-8.98a38.943,38.943,0,0,0-4.368-4.188,3.82,3.82,0,0,0-2.85-.981c-7.414.069-14.827.066-22.241.073a20.841,20.841,0,0,1-2.621-.132,4.137,4.137,0,0,1-3.787-4.1,4.084,4.084,0,0,1,3.756-3.946c1.622-.166,3.263-.2,4.895-.2,7.881-.021,15.762-.034,23.642.007a4.385,4.385,0,0,0,3.352-1.387,103.6,103.6,0,0,0,13.363-16.059,88.125,88.125,0,0,1,15.065-16.575,168.282,168.282,0,0,1,22.853-16.231q10.578-6.4,21.708-11.894c11.051-5.441,22.82-8.668,34.792-11.253a131.113,131.113,0,0,1,24.952-3.242c6.328-.129,12.677-.079,19.026.235A120.517,120.517,0,0,1,310.8,271.35q10.216,1.891,20.274,4.63a182.1,182.1,0,0,1,31.5,11.876c7.867,3.809,15.392,8.2,22.88,12.671a100.454,100.454,0,0,1,15.377,11.086c2.387,2.123,4.658,4.362,7.032,6.483,6.476,5.788,11.386,12.762,16.148,19.933,1.814,2.731,2.738,5.917,4.91,8.442a4.964,4.964,0,0,0,4.115,1.944c3.794-.025,7.589.015,11.382.072a28.283,28.283,0,0,1,2.952.293c.425.05,1.08-.09,1.015.619-.062.672-.7.478-1.122.48-3.794.024-7.589.082-11.382.02-2.468-.04-4.387.63-5.287,3.157-1.924,5.4-5.725,9.659-8.821,14.346-3.583,5.424-8.391,9.736-12.945,14.28a65.335,65.335,0,0,1-6,5.478c-1.569,1.234-3.057,2.579-4.7,3.717-.611.194-.989.773-1.6.97l-1.36,1.056C392.585,394.545,390.105,396.335,387.441,397.838Z" transform="translate(-107.336 -269.108)"/><path class="cls-1" d="M397.954,390.782l10.866-9.1a30.955,30.955,0,0,1-7.314,6.747c-1.24.846-2,2.3-3.537,2.738-.117-.081-.158-.165-.124-.252S397.916,390.782,397.954,390.782Z" transform="translate(-107.336 -269.108)"/><path class="cls-2" d="M387.441,397.838c2.488-1.778,4.869-3.725,7.72-4.935-1.664,2.086-4.278,2.834-6.283,4.443A1.752,1.752,0,0,1,387.441,397.838Z" transform="translate(-107.336 -269.108)"/><path class="cls-3" d="M397.954,390.782l.015.385c-.484.223-.758.9-1.448.68A2.587,2.587,0,0,1,397.954,390.782Z" transform="translate(-107.336 -269.108)"/><path class="cls-4" d="M282.467,422.564c-9.662.584-18.855-.57-28.023-2.078-4.779-.786-9.479-1.925-14.188-3.031a5.208,5.208,0,0,1-3.11-2.01c-6.322-8.1-11.612-16.96-18.227-24.826-2.823-3.357-5.635-6.739-8.706-9.9-2.021-2.08-3.527-4.651-5.475-6.812-3.275-3.635-5.96-7.7-8.949-11.542-1.88-2.414-3.522-5-5.484-7.344-.277-.331-.916-.6-.67-1.1.269-.555.935-.274,1.417-.286q5.163-.132,10.328-.2c12.022-.167,24.044-.306,36.065-.516a2.419,2.419,0,0,1,2.372,1.422c3.028,4.627,5.446,9.615,8.426,14.248,2.416,3.755,4.323,7.8,6.855,11.46,3.077,4.445,5.612,9.219,8.562,13.726,2.064,3.152,3.923,6.43,6.043,9.539,3.009,4.413,5.73,9,8.562,13.521A58.087,58.087,0,0,0,282.467,422.564Z" transform="translate(-107.336 -269.108)"/><path class="cls-5" d="M225.247,306.725a21.387,21.387,0,0,0,1.651-1.514c3.96-4.438,8.286-8.523,12.576-12.622,3.237-3.094,6.4-6.241,9.428-9.531a2.227,2.227,0,0,0,.563-.871c.614-2.36,2.41-2.911,4.535-3.284,10.83-1.9,21.694-3.2,32.717-2.348.229.018.456.062.681.093-5.418,5.837-10.3,12.07-15.233,18.268-2.136,2.682-4.08,5.516-6.327,8.1-3.031,3.489-5.222,7.551-7.9,11.272-3.066,4.253-5.486,8.928-8.573,13.136-3.012,4.106-5.251,8.6-7.739,12.992-1.021,1.8-2.117,3.562-2.962,5.45-.4.884-1.042.791-1.725.781-3.792-.054-7.585-.167-11.378-.174-12.722-.022-25.444-.008-38.276-.339,10.413-11.9,20.672-23.7,32.735-33.76C222.1,310.812,223.551,308.653,225.247,306.725Z" transform="translate(-107.336 -269.108)"/><path class="cls-6" d="M320.632,417.985c-6.392,1.183-12.458,2.526-18.624,3.314-5.146.658-10.323.943-15.506,1.143-.919.035-1.345-.1-1.659-1.138-1.24-4.108-3.807-7.532-6.006-11.148-1.906-3.136-3.6-6.4-5.556-9.507a145.348,145.348,0,0,0-8.237-12.329c-2.653-3.387-4.917-7.039-7.6-10.385-5.159-6.442-9.688-13.333-14.441-20.061a37.4,37.4,0,0,1-3.273-4.83c2.274-.1,4.395-.273,6.517-.283,11.964-.053,23.929-.049,35.893-.122a2.426,2.426,0,0,1,2.513,1.6c3.09,5.982,6.169,11.978,9.529,17.81,2.415,4.193,4.3,8.636,6.59,12.878,2.849,5.269,5.337,10.767,8.577,15.781,2.6,4.02,4.557,8.377,7.223,12.325A19.78,19.78,0,0,0,320.632,417.985Z" transform="translate(-107.336 -269.108)"/><path class="cls-7" d="M239.02,346.4c3.809-4.379,6.191-9.469,10.156-13.428,1.514-1.512,2.625-3.419,4.007-5.073,3.355-4.018,6.672-8.084,10.179-11.955,5.272-5.821,10.334-11.785,15.172-17.973,2.5-3.2,4.892-6.5,7.525-9.591a91.123,91.123,0,0,0,6.9-9.821,3.053,3.053,0,0,1,3.154-1.587,179.225,179.225,0,0,1,20.048,3.011c2.143.418,4.291.809,6.588,1.24-4.364,4.66-8,9.526-11.782,14.288-2.827,3.563-5.264,7.363-7.9,11.042-2.543,3.553-4.467,7.458-6.844,11.09-3.324,5.078-5.77,10.624-8.75,15.877a90.588,90.588,0,0,0-5.637,12.257,1.2,1.2,0,0,1-1.342.951q-19.784-.051-39.568-.062A16.833,16.833,0,0,1,239.02,346.4Z" transform="translate(-107.336 -269.108)"/><path class="cls-5" d="M354.218,407.415C344,412.226,333.406,415.242,322.3,417.6c.685-1.7.1-2.9-.641-4.129-3.8-6.331-7.128-12.921-10.731-19.355-2.825-5.045-5.4-10.276-8.97-14.889a21.137,21.137,0,0,1-1.83-2.982c-3.664-6.843-8.732-12.765-12.723-19.4-.785-1.305-1.762-2.512-2.5-3.838.325-.516.778-.341,1.145-.342,10.04-.046,20.079-.055,30.119-.135a3.114,3.114,0,0,1,3.1,1.729,70.855,70.855,0,0,0,4.158,6.836c3.168,4.379,5.769,9.122,8.822,13.555,2.71,3.934,5.016,8.108,7.694,12.035,2.6,3.806,4.551,8.011,7.308,11.666C349.483,401.313,351.519,404.442,354.218,407.415Z" transform="translate(-107.336 -269.108)"/><path class="cls-4" d="M380.816,315.112l-.389.412a10.607,10.607,0,0,0-2,2.244c-4.686,6.381-9.835,12.407-14.131,19.1-1.887,2.939-3.863,5.86-5.856,8.75a2.1,2.1,0,0,1-1.988,1.034c-12.6.006-25.2.047-37.806.055-.611,0-1.4.362-1.733-.641-.291-.875.426-1.1.79-1.611,1.107-1.56,2.058-3.23,3.143-4.806,3.5-5.093,7.336-9.948,10.8-15.073,1.58-2.337,3.537-4.42,5.322-6.618a13.154,13.154,0,0,0,2.114-2.827l-.009.016a8.4,8.4,0,0,0,1.106-1.373c3.563-4.347,7.171-8.658,10.672-13.054,1.873-2.351,3.621-4.809,5.3-7.305.483-.719.759-.817,1.473-.447q4.408,2.284,8.861,4.483c.55.272,1.016,1.1,1.816.382a.348.348,0,0,1,.554.207c.093,1.531,1.466,1.521,2.388,2.1,4.428,2.786,9.219,4.974,13.419,8.133.6.783.165,1.478-.337,2A32.8,32.8,0,0,0,380.816,315.112Z" transform="translate(-107.336 -269.108)"/><path class="cls-8" d="M299.275,346.7c-5.077,0-10.155-.021-15.232.017-1.1.009-1.537-.157-.948-1.332a96.126,96.126,0,0,1,11.818-18.244c1.3-1.568,2.376-3.314,3.536-4.993,3.465-5.019,7.371-9.709,10.9-14.687,2.276-3.209,4.469-6.526,6.985-9.557,3.9-4.7,7.1-9.881,10.711-14.78a1.237,1.237,0,0,1,1.563-.59,154.324,154.324,0,0,1,21.736,7.118c1.18.493,1.7.852.573,2.107a151.527,151.527,0,0,0-17.346,23.962c-2.582,4.344-5.008,8.789-7.708,13.049-2.864,4.52-5.055,9.389-7.848,13.926a14.611,14.611,0,0,0-2.03,3.543c-.238.834-.973.47-1.479.473-5.077.028-10.155.017-15.233.017Z" transform="translate(-107.336 -269.108)"/><path class="cls-7" d="M169.848,380.729a58.35,58.35,0,0,1-9.009-9.1c-3.476-4.52-6.932-9.055-10.452-13.539-1.031-1.315-2.251-2.482-3.392-3.726.231-.529.7-.275,1.05-.279q19.436-.218,38.871-.418a2.4,2.4,0,0,1,2.392,1.266c1.657,2.658,3.131,5.441,4.9,8.006,2.737,3.963,4.8,8.376,7.861,12.086,2.493,3.023,4.311,6.478,6.709,9.541,4.043,5.161,8.3,10.168,12.081,15.517,3.289,4.654,6.889,9.074,10.077,13.8.189.28.368.567.793,1.222-2.637-.841-4.937-1.446-7.141-2.3a146.708,146.708,0,0,1-19.474-9.08c-4.343-2.469-8.888-4.582-13.165-7.181-1.187-1.737-3.137-2.479-4.785-3.591-2.591-1.748-5.231-3.426-7.765-5.257-2.58-1.864-5.142-3.751-7.773-5.539a2.226,2.226,0,0,1-.416-.231C170.805,381.469,170.478,380.926,169.848,380.729Z" transform="translate(-107.336 -269.108)"/><path class="cls-8" d="M350.3,395.076c-1.206-2.11-3.213-3.654-4.186-5.928a5.615,5.615,0,0,0-1.441-2.123c-3.371-4.515-6.7-9.058-10.124-13.537-4.006-5.247-8.108-10.422-12.12-15.665-1.228-1.6-2.3-3.329-3.456-5.025.961-.636,2.011-.2,3.006-.2,11.962-.047,23.925.172,35.885-.193a3.436,3.436,0,0,1,3.356,1.781c2.824,4.172,5.382,8.516,8.213,12.672,3.11,4.565,5.943,9.28,8.807,13.993,1.773,2.919,3.379,5.961,5.382,8.737.775,1.074.685,1.58-.473,2.263-8.58,5.059-17.109,10.206-26.176,14.375-.192.264-.4.258-.622.038a3.406,3.406,0,0,0-.642-2.36c-1.577-2.252-2.924-4.665-4.361-7.015A6.788,6.788,0,0,0,350.3,395.076Z" transform="translate(-107.336 -269.108)"/><path class="cls-8" d="M240,282.959c-4.409,4.318-9.168,8.254-13.554,12.61-5.116,5.08-10.222,10.14-14.966,15.588-5.312,6.1-10.034,12.634-15,18.988-3.018,3.858-5.515,8.009-8.256,12.022a29.374,29.374,0,0,0-2.4,3.374c-.4.81-1.239.488-1.9.486q-16.8-.039-33.606-.114c-.29,0-.581,0-1.056,0,2.608-1.6,4.26-3.966,6.185-6.094,3.1-3.43,5.4-7.437,8.328-10.965,3.512-4.235,6.912-8.614,11.42-11.91,1.778-1.111,3-2.911,4.861-3.92,7.374-5.582,14.856-10.991,23.195-15.1,3.027-1.492,5.984-3.136,8.905-4.829a105.03,105.03,0,0,1,20.033-8.56c2.32-.764,4.71-1.316,7.068-1.965C239.665,282.4,240.03,282.305,240,282.959Z" transform="translate(-107.336 -269.108)"/><path class="cls-5" d="M393.11,385.282c-1.474,1.047-2.953,2.087-4.418,3.146-.674.486-1.03.394-1.674-.273a24.52,24.52,0,0,1-3.343-5.066,126,126,0,0,0-11.984-16.738c-3.453-4.216-6.309-8.9-10.122-12.817a1.121,1.121,0,0,1-.325-1.121c1.567,0,3.172.011,4.777,0,9.924-.08,19.849-.153,29.772-.271a1.364,1.364,0,0,1,1.331.838,31.508,31.508,0,0,0,3.5,5.188c3.229,3.344,5.5,7.312,7.954,11.18.489.771,1.14,1.438,1.707,2.161.551.7.452,1.323-.35,1.712a21.351,21.351,0,0,0-3.907,2.926c-3.72,3-8.1,5.069-11.618,8.346C394.044,384.867,393.42,384.817,393.11,385.282Z" transform="translate(-107.336 -269.108)"/><path class="cls-7" d="M358.926,346.512c3.79-4.94,7.657-9.5,11.5-14.058,4.9-5.81,10.243-11.253,15.491-16.763A15.77,15.77,0,0,0,388.745,312c.323-.637.677-.916,1.335-.377,5.586,4.58,12.045,7.952,17.528,12.682,1.052.908,1.61,1.546.024,2.445A5.1,5.1,0,0,0,405.9,328.7c-3.308,5.624-7.156,10.928-9.98,16.836-.346.723-.649,1.191-1.616,1.186-11.556-.062-23.113-.068-34.669-.092A6.144,6.144,0,0,1,358.926,346.512Z" transform="translate(-107.336 -269.108)"/><path class="cls-6" d="M395.911,346.528c2.193-3.249,3.931-6.551,6.4-9.448a92.208,92.208,0,0,0,5.814-8.485,6.694,6.694,0,0,1,.839-1.108,1.527,1.527,0,0,1,2.556.033c3.658,3.741,7.384,7.422,10.725,11.452,2.1,2.537,3.79,5.405,6.046,7.835.252.272.559.714.3,1.1s-.749.185-1.137.189c-6.984.063-13.944-.367-20.9-.929-2.727-.22-5.478-.15-8.218-.176A5.822,5.822,0,0,1,395.911,346.528Z" transform="translate(-107.336 -269.108)"/><path class="cls-9" d="M397.242,352.468c11.256-1.524,22.126-.69,33.309-2.327-4.576,8.517-11.393,14.509-17.943,20.946C408.257,364.262,402.573,358.8,397.242,352.468Z" transform="translate(-107.336 -269.108)"/><path class="cls-10" d="M171.282,381.8a1.42,1.42,0,0,1,1.156.221c4.114,3.257,8.4,6.275,12.749,9.21,1.85,1.25,3.746,2.435,5.662,3.581.7.419,1.291.79,1.1,1.724-3.71-2.179-7.1-4.844-10.742-7.114a76.761,76.761,0,0,1-8.926-6.552C172.051,382.419,171.131,382.611,171.282,381.8Z" transform="translate(-107.336 -269.108)"/><path class="cls-11" d="M380.816,315.112a8.651,8.651,0,0,1,2.771-4.392,3.087,3.087,0,0,0,1.078-2.446c1.132.433,1.5.881.315,1.83C383.266,311.476,382.627,313.788,380.816,315.112Z" transform="translate(-107.336 -269.108)"/><path class="cls-12" d="M225.247,306.725c-1.405,2.2-2.85,4.358-5.231,5.652A56.615,56.615,0,0,1,225.247,306.725Z" transform="translate(-107.336 -269.108)"/><path class="cls-13" d="M180.06,313.024c-1.683,1.229-2.673,3.318-4.861,3.92C176.644,315.42,177.941,313.713,180.06,313.024Z" transform="translate(-107.336 -269.108)"/><path class="cls-11" d="M378.432,317.768c-.142-1.465,1.019-1.772,2-2.244A3.914,3.914,0,0,1,378.432,317.768Z" transform="translate(-107.336 -269.108)"/><path class="cls-14" d="M339.087,315.131a4.065,4.065,0,0,1-2.114,2.827A11.271,11.271,0,0,1,339.087,315.131Z" transform="translate(-107.336 -269.108)"/><path class="cls-15" d="M344.676,387.025c.871.443,1.564,1,1.441,2.123A6.023,6.023,0,0,1,344.676,387.025Z" transform="translate(-107.336 -269.108)"/><path class="cls-16" d="M240,282.959c-.14-.331-.457-.325-.738-.39a2.848,2.848,0,0,1,2.125-.516Z" transform="translate(-107.336 -269.108)"/><path class="cls-17" d="M356.354,406.263l.622-.038a1.028,1.028,0,0,1-1.486.631C355.546,406.286,355.975,406.312,356.354,406.263Z" transform="translate(-107.336 -269.108)"/><path class="cls-18" d="M171.282,381.8l1,1.07a1.662,1.662,0,0,1-1.6-1.176.391.391,0,0,1,.612.095Z" transform="translate(-107.336 -269.108)"/><path class="cls-19" d="M350.3,395.076a1.856,1.856,0,0,1,1.048,1.812A3.456,3.456,0,0,1,350.3,395.076Z" transform="translate(-107.336 -269.108)"/><path class="cls-10" d="M171.291,381.789l-.612-.095-.831-.965A1.428,1.428,0,0,1,171.291,381.789Z" transform="translate(-107.336 -269.108)"/><path class="cls-14" d="M340.184,313.774a1.454,1.454,0,0,1-1.106,1.373A1.837,1.837,0,0,1,340.184,313.774Z" transform="translate(-107.336 -269.108)"/><path class="cls-20" d="M393.11,385.282a1.176,1.176,0,0,1,1.3-.79C394.144,385.031,393.612,385.131,393.11,385.282Z" transform="translate(-107.336 -269.108)"/></svg>